name GIL03_xfast2Moments.mot
datacolumns 7
datarows 81
range 6.666667e-002 7.333333e-001
endheader

                time	          RHipMoment	          LHipMoment	         RKneeMoment	         LKneeMoment	        RAnkleMoment	        LAnkleMoment	
          0.06666667	       -849.65356445	        675.10729980	        240.28321838	        164.50241089	        -75.18558502	       -124.57981110	
          0.07500000	       -832.33209229	        733.16705322	        288.57794189	        211.33792114	        -79.09332275	        -97.91657257	
          0.08333334	       -819.64801025	        686.08483887	        343.94763184	        275.92416382	        -78.67340088	        -67.20481110	
          0.09166667	       -802.68542480	        612.80151367	        395.81924438	        329.08740234	        -74.65045166	        -30.89479637	
          0.10000001	       -774.68029785	        601.64019775	        433.83520508	        361.29452515	        -68.13150787	          0.54032564	
          0.10833333	       -732.12396240	        619.23767090	        450.48999023	        363.59432983	        -60.34422302	         27.64429474	
          0.11666667	       -676.93542480	        614.02722168	        443.86511230	        343.31787109	        -52.34489822	         44.57209778	
          0.12500000	       -610.91754150	        588.58337402	        416.30035400	        307.90411377	        -44.77396774	         56.57032013	
          0.13333334	       -536.34210205	        544.87493896	        374.00717163	        262.66351318	        -37.80644989	         72.67395782	
          0.14166668	       -454.94482422	        473.09100342	        323.94961548	        218.56114197	        -31.30460358	         95.72956085	
          0.15000001	       -373.31234741	        393.89675903	        273.52081299	        169.08943176	        -25.05430412	        132.27621460	
          0.15833333	       -295.24932861	        354.71182251	        226.47970581	         94.89772034	        -18.96461868	        193.03517151	
          0.16666667	       -222.03868103	        356.22912598	        184.38043213	          3.69047451	        -13.16224957	        270.23422241	
          0.17500001	       -150.25520325	        329.21765137	        146.16279602	        -73.39862061	         -7.97820568	        353.83364868	
          0.18333334	        -82.95627594	        276.44018555	        112.05796051	       -131.76014709	         -3.84369087	        438.78628540	
          0.19166668	        -19.79721069	        247.54949951	         80.77247620	       -189.53526306	         -1.15186083	        521.40264893	
          0.20000000	         39.88846207	        249.77740479	         51.87327576	       -251.17391968	         -0.17810853	        601.11260986	
          0.20833334	         98.49646759	        240.72097778	         24.35857201	       -296.36117554	         -1.05348110	        677.33013916	
          0.21666667	        157.33035278	        199.12684631	         -2.76958847	       -319.33459473	         -3.68167734	        755.39422607	
          0.22500001	        213.85987854	        145.56855774	        -30.06920242	       -335.51080322	         -7.69489193	        832.71154785	
          0.23333333	        279.53283691	         74.83863068	        -63.62903214	       -346.49792480	        -12.47961235	        907.07995605	
          0.24166667	        355.46292114	        -18.31368637	       -105.39257813	       -352.08477783	        -17.25752831	        983.32293701	
          0.25000000	        448.90011597	       -128.29701233	       -160.81385803	       -353.61801147	        -21.22528076	       1061.05554199	
          0.25833333	        539.91107178	       -231.83493042	       -224.85734558	       -358.80694580	        -23.67228699	       1137.56506348	
          0.26666665	        631.48211670	       -327.72274780	       -298.40133667	       -365.06527710	        -24.14052582	       1212.57751465	
          0.27500001	        709.32629395	       -445.23117065	       -373.23574829	       -353.14498901	        -22.51957703	       1284.93103027	
          0.28333333	        782.98223877	       -537.82305908	       -448.26199341	       -344.42471313	        -19.01415253	       1351.09704590	
          0.29166669	        833.58282471	       -611.48291016	       -511.15246582	       -333.24011230	        -13.96581936	       1409.34899902	
          0.30000001	        885.00689697	       -712.12554932	       -565.06262207	       -295.27410889	         -7.78374910	       1457.39990234	
          0.30833334	        929.66235352	       -799.05169678	       -602.66204834	       -249.28364563	         -0.95101380	       1490.00659180	
          0.31666666	        982.99383545	       -849.94653320	       -628.05975342	       -205.38815308	          5.87760162	       1501.24353027	
          0.32500002	       1017.27770996	       -915.27868652	       -634.48345947	       -134.81773376	         11.70715809	       1482.02087402	
          0.33333334	       1022.98675537	       -938.53692627	       -624.55926514	        -66.11926270	         15.32486534	       1428.05505371	
          0.34166667	        978.69317627	       -929.59649658	       -597.22216797	          5.47955608	         15.71397400	       1331.69055176	
          0.34999999	        892.31640625	       -847.26855469	       -558.09277344	         49.71163559	         12.32172585	       1185.33630371	
          0.35833335	        768.47985840	       -732.39886475	       -506.88598633	         74.79087067	          5.37749004	        982.06658936	
          0.36666667	        872.46252441	       -602.79376221	       -468.62448120	         69.52789307	        -35.07270432	        723.31091309	
          0.37500000	       1410.04541016	       -689.09436035	       -441.12063599	        142.32235718	        -98.41798401	        407.83477783	
          0.38333333	       1733.53576660	       -765.02246094	       -470.62710571	        165.84616089	         17.15370750	        146.16925049	
          0.39166668	       1463.46484375	       -779.64117432	       -137.31219482	        172.51768494	         38.52602386	         11.54343224	
          0.40000001	       1075.66455078	       -820.11633301	        184.47984314	        206.87573242	        100.20309448	        -70.43248749	
          0.40833333	        970.41314697	       -764.74468994	        397.20108032	        206.22337341	        200.05714417	        -89.43129730	
          0.41666666	        659.13726807	       -792.11840820	        707.98828125	        268.76666260	        288.37075806	        -87.16878510	
          0.42500001	        628.81097412	       -808.55377197	        805.59552002	        329.59793091	        384.58929443	        -80.76306152	
          0.43333334	        866.51477051	       -807.36425781	        721.32910156	        380.10919189	        469.43295288	        -71.46218872	
          0.44166666	        798.34429932	       -786.95562744	        686.27618408	        415.20083618	        521.66943359	        -60.54947662	
          0.45000002	        608.15911865	       -747.52789307	        631.36859131	        433.24890137	        544.24005127	        -49.21262360	
          0.45833334	        545.65844727	       -689.19390869	        484.17910767	        434.94204712	        554.82788086	        -38.42680740	
          0.46666667	        486.22802734	       -612.27838135	        316.96533203	        421.54614258	        556.40484619	        -28.96307945	
          0.47499999	        375.84564209	       -519.28747559	        182.93371582	        394.65597534	        545.61132813	        -21.38693810	
          0.48333335	        251.68190002	       -413.06823730	         85.37562561	        354.61605835	        523.50921631	        -16.11264420	
          0.49166667	        164.42150879	       -298.25662231	          0.30337933	        302.61895752	        497.17956543	        -13.27263260	
          0.50000000	        125.66831970	       -182.73934937	        -83.87976074	        242.79135132	        477.96542358	        -12.59233284	
          0.50833333	         92.76115417	        -77.02632904	       -150.04829407	        182.16450500	        465.05038452	        -13.38281536	
          0.51666665	         59.47250748	          9.02820110	       -201.27973938	        128.13612366	        459.28710938	        -14.77840137	
          0.52499998	         36.68683243	         69.82440186	       -250.55639648	         85.85305023	        463.51184082	        -16.04782677	
          0.53333330	         34.37397385	        105.53391266	       -308.17337036	         56.71704865	        478.96060181	        -16.79613495	
          0.54166663	         59.75275803	        121.49658203	       -380.51605225	         38.43765259	        508.06805420	        -16.97632408	
          0.55000001	         82.14971161	        127.95254517	       -453.74395752	         25.13612366	        554.94238281	        -16.88648987	
          0.55833334	         53.89319229	        137.79927063	       -501.18731689	          9.29462910	        622.04650879	        -17.02411079	
          0.56666666	         16.32646561	        162.77447510	       -540.82592773	        -15.25655079	        706.77319336	        -17.81578255	
          0.57499999	        -20.34112740	        209.88562012	       -577.55072021	        -51.66955185	        805.89416504	        -19.42829514	
          0.58333331	        -83.00701141	        278.97512817	       -598.51763916	        -99.92737579	        917.43951416	        -21.73612595	
          0.59166670	       -185.62506104	        362.60696411	       -599.02526855	       -157.60296631	       1037.94677734	        -24.33996201	
          0.60000002	       -312.65298462	        447.81011963	       -589.84893799	       -220.29138184	       1163.65112305	        -26.58857536	
          0.60833335	       -440.39926147	        520.60046387	       -582.57885742	       -282.33471680	       1283.11816406	        -27.65393829	
          0.61666667	       -501.99981689	        573.09338379	       -612.22363281	       -338.62606812	       1393.24609375	        -26.79419708	
          0.62500000	       -576.73840332	        608.72888184	       -637.04321289	       -386.68661499	       1490.67309570	        -23.68877602	
          0.63333333	       -652.01654053	        640.36389160	       -660.23474121	       -427.29284668	       1576.20556641	        -18.54423904	
          0.64166665	       -721.21655273	        682.26116943	       -680.07690430	       -463.54483032	       1648.84582520	        -11.97264576	
          0.64999998	       -815.60046387	        740.81787109	       -676.23919678	       -498.59036255	       1707.98010254	         -4.79074907	
          0.65833336	       -933.27270508	        811.53088379	       -643.96197510	       -534.15405273	       1749.54431152	          2.26879382	
          0.66666669	      -1070.12402344	        880.78289795	       -582.22583008	       -568.88635254	       1769.22497559	          8.64585686	
          0.67500001	      -1211.15686035	        929.86798096	       -496.11569214	       -597.17242432	       1761.32458496	         13.68997002	
          0.68333334	      -1308.71728516	        941.60693359	       -410.75930786	       -610.25073242	       1723.53540039	         16.63396263	
          0.69166666	      -1406.69702148	        906.73016357	       -305.75164795	       -599.14593506	       1652.72705078	         16.67453194	
          0.69999999	      -1458.02319336	        827.19372559	       -207.25877380	       -558.48767090	       1553.35070801	         13.21836281	
          0.70833331	      -1460.72290039	        714.38861084	       -118.00388336	       -488.96377563	       1428.33959961	          6.08400631	
          0.71666670	      -1388.59411621	          0.00000000	        -51.62055206	          0.00000000	       1274.92333984	          0.00000000	
          0.72500002	      -1212.51489258	          0.00000000	        -27.05941010	          0.00000000	       1087.53161621	          0.00000000	
          0.73333335	      -1031.78295898	          0.00000000	         -2.98892355	          0.00000000	        866.51129150	          0.00000000	
